Moderustic-Regular.ufo
<glyph name="exclam" format="2">
  <advance width="255"/>
  <unicode hex="0021"/>
  <outline>
    <contour>
      <point x="88" y="249" type="line"/>
      <point x="167" y="249" type="line"/>
      <point x="183" y="750" type="line"/>
      <point x="72" y="750" type="line"/>
    </contour>
    <contour>
      <point x="129" y="-20" type="curve" smooth="yes"/>
      <point x="159.708" y="-20"/>
      <point x="182.04" y="2.746"/>
      <point x="182.04" y="30.742" type="curve" smooth="yes"/>
      <point x="182.04" y="58.737"/>
      <point x="159.708" y="79.734"/>
      <point x="129" y="79.734" type="curve" smooth="yes"/>
      <point x="97.362" y="79.734"/>
      <point x="75.96" y="58.737"/>
      <point x="75.96" y="30.742" type="curve" smooth="yes"/>
      <point x="75.96" y="2.746"/>
      <point x="97.362" y="-20"/>
    </contour>
  </outline>
</glyph>
<glyph name="Q" format="2">
  <advance width="775"/>
  <unicode hex="0051"/>
  <anchor x="388" y="719" name="top"/>
  <anchor x="388" y="-20" name="bottom"/>
  <anchor x="514" y="-1" name="ogonek"/>
  <outline>
    <contour>
      <point x="389.969" y="60" type="curve" smooth="yes" name="dv02"/>
      <point x="233.916" y="60"/>
      <point x="147" y="158.541"/>
      <point x="147" y="349.512" type="curve" smooth="yes"/>
      <point x="147" y="531.827"/>
      <point x="233.916" y="640"/>
      <point x="384.043" y="640" type="curve" smooth="yes" name="dv03"/>
      <point x="546.023" y="640"/>
      <point x="628" y="543.671"/>
      <point x="628" y="350.003" type="curve" smooth="yes" name="dv05"/>
      <point x="628" y="170.384"/>
      <point x="539.109" y="60"/>
    </contour>
    <contour>
      <point x="387" y="-20" type="curve" smooth="yes" name="dv01"/>
      <point x="583" y="-20"/>
      <point x="722" y="107"/>
      <point x="722" y="350" type="curve" smooth="yes" name="dv06"/>
      <point x="722" y="575"/>
      <point x="596" y="720"/>
      <point x="388" y="720" type="curve" smooth="yes" name="dv04"/>
      <point x="188" y="720"/>
      <point x="53" y="586"/>
      <point x="53" y="350" type="curve" smooth="yes"/>
      <point x="53" y="109"/>
      <point x="192" y="-20"/>
    </contour>
    <contour>
      <point x="360" y="-3" type="line" name="ab02"/>
      <point x="360" y="-166"/>
      <point x="412" y="-194"/>
      <point x="634" y="-194" type="curve"/>
      <point x="634" y="-121" type="line"/>
      <point x="468" y="-121"/>
      <point x="443" y="-111"/>
      <point x="443" y="-3" type="curve" name="ab01"/>
    </contour>
  </outline>
</glyph>
<glyph name="lslash" format="2">
  <advance width="350"/>
  <unicode hex="0142"/>
  <outline>
    <contour>
      <point x="299" y="68" type="line"/>
      <point x="279" y="59"/>
      <point x="254" y="53"/>
      <point x="233" y="53" type="curve" smooth="yes" name="dv02"/>
      <point x="199" y="53"/>
      <point x="189" y="68"/>
      <point x="189" y="141" type="curve" smooth="yes"/>
      <point x="189" y="750" type="line" name="ab01"/>
      <point x="99" y="750" type="line"/>
      <point x="99" y="132" type="line" smooth="yes"/>
      <point x="99" y="30"/>
      <point x="135" y="-20"/>
      <point x="224" y="-20" type="curve" smooth="yes" name="dv01"/>
      <point x="249" y="-20"/>
      <point x="272" y="-16"/>
      <point x="315" y="2" type="curve"/>
    </contour>
    <contour>
      <point x="6" y="250" type="line"/>
      <point x="292" y="445" type="line"/>
      <point x="292" y="486" type="line"/>
      <point x="6" y="291" type="line"/>
    </contour>
  </outline>
</glyph>
<glyph name="schwa" format="2">
  <advance width="613"/>
  <unicode hex="0259"/>
  <anchor x="306" y="520" name="top"/>
  <anchor x="306" y="-20" name="bottom"/>
  <outline>
    <contour>
      <point x="453" y="224" type="line" name="ah01"/>
      <point x="449" y="112.358"/>
      <point x="395" y="50"/>
      <point x="302" y="50" type="curve" smooth="yes" name="dv02"/>
      <point x="207" y="50"/>
      <point x="151" y="115"/>
      <point x="151" y="224" type="curve" name="dv03"/>
    </contour>
    <contour>
      <point x="63" y="286" type="line" name="dv04"/>
      <point x="61" y="271"/>
      <point x="60" y="262"/>
      <point x="60" y="246" type="curve" smooth="yes" name="sh01"/>
      <point x="60" y="86"/>
      <point x="158" y="-20"/>
      <point x="304" y="-20" type="curve" smooth="yes" name="dv01"/>
      <point x="452" y="-20"/>
      <point x="544" y="89"/>
      <point x="544" y="256" type="curve" smooth="yes" name="sh02"/>
      <point x="544" y="421"/>
      <point x="454" y="520"/>
      <point x="301" y="520" type="curve" smooth="yes" name="at01"/>
      <point x="208" y="520"/>
      <point x="133" y="483"/>
      <point x="91" y="430" type="curve" name="dv05"/>
      <point x="142" y="379" type="line" name="sh04"/>
      <point x="183.111" y="423.629"/>
      <point x="242" y="450"/>
      <point x="302" y="450" type="curve" smooth="yes" name="sv01"/>
      <point x="403" y="450"/>
      <point x="449.667" y="376.552"/>
      <point x="453" y="286" type="curve" name="sh03"/>
    </contour>
  </outline>
</glyph>
<glyph name="tildecomb" format="2">
  <advance width="443"/>
  <unicode hex="0303"/>
  <anchor x="222" y="670" name="top"/>
  <anchor x="222" y="500" name="_top"/>
  <outline>
    <contour>
      <point x="120" y="585" type="line"/>
      <point x="123" y="614.286"/>
      <point x="134" y="626"/>
      <point x="156" y="626" type="curve" smooth="yes"/>
      <point x="198" y="626"/>
      <point x="221" y="582"/>
      <point x="280" y="582" type="curve" smooth="yes"/>
      <point x="335" y="582"/>
      <point x="380" y="621"/>
      <point x="380" y="684" type="curve"/>
      <point x="320" y="684" type="line"/>
      <point x="317" y="655"/>
      <point x="303" y="641"/>
      <point x="278" y="641" type="curve" smooth="yes"/>
      <point x="235" y="641"/>
      <point x="204" y="685"/>
      <point x="149" y="685" type="curve" smooth="yes"/>
      <point x="97" y="685"/>
      <point x="60" y="646.386"/>
      <point x="60" y="585" type="curve"/>
    </contour>
  </outline>
</glyph>
<glyph name="Delta" format="2">
  <advance width="655"/>
  <unicode hex="0394"/>
  <outline>
    <contour>
      <point x="93" y="0" type="line" name="dv01"/>
      <point x="569" y="0" type="line"/>
      <point x="535" y="80" type="line" name="dv03"/>
      <point x="127" y="80" type="line" name="dv02"/>
    </contour>
    <contour>
      <point x="32" y="0" type="line"/>
      <point x="128" y="0" type="line"/>
      <point x="342" y="700" type="line"/>
      <point x="259" y="700" type="line"/>
    </contour>
    <contour>
      <point x="527" y="0" type="line"/>
      <point x="623" y="0" type="line"/>
      <point x="396" y="700" type="line"/>
      <point x="313" y="700" type="line"/>
    </contour>
  </outline>
</glyph>
<glyph name="upsilon" format="2">
  <advance width="589"/>
  <unicode hex="03C5"/>
  <anchor x="283" y="520" name="topgr"/>
  <outline>
    <contour>
      <point x="86" y="500" type="line"/>
      <point x="86" y="185" type="line" smooth="yes"/>
      <point x="86" y="54"/>
      <point x="169" y="-20"/>
      <point x="302" y="-20" type="curve" smooth="yes"/>
      <point x="454" y="-20"/>
      <point x="539" y="76"/>
      <point x="539" y="257" type="curve" smooth="yes"/>
      <point x="539" y="349"/>
      <point x="517" y="434"/>
      <point x="481" y="500" type="curve"/>
      <point x="388" y="500" type="line"/>
      <point x="423" y="424"/>
      <point x="449" y="344"/>
      <point x="449" y="255" type="curve" smooth="yes"/>
      <point x="449" y="124"/>
      <point x="392" y="50"/>
      <point x="297" y="50" type="curve" smooth="yes"/>
      <point x="222" y="50"/>
      <point x="176" y="97"/>
      <point x="176" y="194" type="curve" smooth="yes"/>
      <point x="176" y="500" type="line"/>
    </contour>
  </outline>
</glyph>
<glyph name="Efcyr" format="2">
  <advance width="836"/>
  <unicode hex="0424"/>
  <outline>
    <contour>
      <point x="373" y="-20" type="line"/>
      <point x="463" y="-20" type="line"/>
      <point x="463" y="60" type="line"/>
      <point x="640" y="60"/>
      <point x="773" y="172"/>
      <point x="773" y="354" type="curve" smooth="yes"/>
      <point x="773" y="535"/>
      <point x="642" y="642"/>
      <point x="463" y="642" type="curve"/>
      <point x="463" y="722" type="line"/>
      <point x="373" y="722" type="line"/>
      <point x="373" y="642" type="line"/>
      <point x="194" y="642"/>
      <point x="63" y="535"/>
      <point x="63" y="354" type="curve" smooth="yes"/>
      <point x="63" y="172"/>
      <point x="196" y="60"/>
      <point x="373" y="60" type="curve"/>
    </contour>
    <contour>
      <point x="463" y="562" type="line"/>
      <point x="597" y="562"/>
      <point x="683" y="504"/>
      <point x="683" y="354" type="curve" smooth="yes"/>
      <point x="683" y="208"/>
      <point x="602" y="140"/>
      <point x="463" y="140" type="curve"/>
    </contour>
    <contour>
      <point x="373" y="140" type="line"/>
      <point x="237" y="140"/>
      <point x="153" y="211"/>
      <point x="153" y="357" type="curve" smooth="yes"/>
      <point x="153" y="501"/>
      <point x="234" y="562"/>
      <point x="373" y="562" type="curve"/>
    </contour>
  </outline>
</glyph>
<glyph name="becyr" format="2">
  <advance width="582"/>
  <unicode hex="0431"/>
  <outline>
    <contour>
      <point x="488" y="743" type="line"/>
      <point x="436.018" y="696"/>
      <point x="359.945" y="679.187"/>
      <point x="306.062" y="672" type="curve" smooth="yes"/>
      <point x="112.547" y="646.187"/>
      <point x="50" y="548"/>
      <point x="50" y="330" type="curve" smooth="yes"/>
      <point x="50" y="85"/>
      <point x="129.206" y="-20"/>
      <point x="295.347" y="-20" type="curve" smooth="yes"/>
      <point x="449.896" y="-20"/>
      <point x="532" y="71"/>
      <point x="532" y="233" type="curve" smooth="yes"/>
      <point x="532" y="394"/>
      <point x="450.533" y="479"/>
      <point x="324.02" y="479" type="curve" smooth="yes"/>
      <point x="219.55" y="479"/>
      <point x="140" y="421"/>
      <point x="110" y="343" type="curve"/>
      <point x="110" y="515"/>
      <point x="159.71" y="585.499"/>
      <point x="313.833" y="602" type="curve" smooth="yes"/>
      <point x="393.211" y="610.499"/>
      <point x="457.377" y="634"/>
      <point x="488" y="661" type="curve"/>
    </contour>
    <contour>
      <point x="294.366" y="50" type="curve" smooth="yes"/>
      <point x="195.943" y="50"/>
      <point x="142" y="123"/>
      <point x="142" y="235" type="curve" smooth="yes"/>
      <point x="142" y="349"/>
      <point x="197.836" y="409"/>
      <point x="296.259" y="409" type="curve" smooth="yes"/>
      <point x="393.735" y="409"/>
      <point x="442" y="349"/>
      <point x="442" y="237" type="curve" smooth="yes"/>
      <point x="442" y="123"/>
      <point x="391.842" y="50"/>
    </contour>
  </outline>
</glyph>
<glyph name="Ohm" format="2">
  <advance width="790"/>
  <unicode hex="2126"/>
  <anchor x="10" y="500" name="topgr"/>
  <outline>
    <contour>
      <point x="81" y="0" type="line"/>
      <point x="331" y="0" type="line"/>
      <point x="331" y="80" type="line"/>
      <point x="210.322" y="137.098"/>
      <point x="153" y="250.781"/>
      <point x="153" y="377.952" type="curve" smooth="yes"/>
      <point x="153" y="546.549"/>
      <point x="248.193" y="640"/>
      <point x="394.489" y="640" type="curve" smooth="yes"/>
      <point x="544.793" y="640"/>
      <point x="647" y="541.732"/>
      <point x="647" y="377.952" type="curve" smooth="yes"/>
      <point x="647" y="247.891"/>
      <point x="585" y="137.098"/>
      <point x="468" y="80" type="curve"/>
      <point x="468" y="0" type="line"/>
      <point x="718" y="0" type="line"/>
      <point x="718" y="80" type="line"/>
      <point x="570" y="80" type="line"/>
      <point x="672" y="121.064"/>
      <point x="737" y="240.25"/>
      <point x="737" y="376.463" type="curve" smooth="yes"/>
      <point x="737" y="578.779"/>
      <point x="595" y="720"/>
      <point x="400" y="720" type="curve" smooth="yes"/>
      <point x="204" y="720"/>
      <point x="63" y="577.778"/>
      <point x="63" y="372.457" type="curve" smooth="yes"/>
      <point x="63" y="235.243"/>
      <point x="126" y="121.064"/>
      <point x="229" y="80" type="curve"/>
      <point x="81" y="80" type="line"/>
    </contour>
  </outline>
</glyph>
<glyph name="infinity" format="2">
  <advance width="719"/>
  <unicode hex="221E"/>
  <outline>
    <contour>
      <point x="328" y="297" type="curve"/>
      <point x="264" y="259"/>
      <point x="213" y="234"/>
      <point x="153" y="234" type="curve" smooth="yes"/>
      <point x="96" y="234"/>
      <point x="47" y="266"/>
      <point x="47" y="326" type="curve" smooth="yes"/>
      <point x="47" y="389"/>
      <point x="86" y="425"/>
      <point x="157" y="425" type="curve" smooth="yes"/>
      <point x="197" y="425"/>
      <point x="256" y="384"/>
      <point x="316" y="339" type="curve" smooth="yes"/>
      <point x="443" y="245"/>
      <point x="501" y="213"/>
      <point x="559" y="213" type="curve" smooth="yes"/>
      <point x="643" y="213"/>
      <point x="694" y="284"/>
      <point x="694" y="356" type="curve" smooth="yes"/>
      <point x="694" y="446"/>
      <point x="629" y="473"/>
      <point x="568" y="473" type="curve" smooth="yes"/>
      <point x="483" y="473"/>
      <point x="420" y="421"/>
      <point x="393" y="390" type="curve"/>
      <point x="457" y="428"/>
      <point x="508" y="453"/>
      <point x="568" y="453" type="curve" smooth="yes"/>
      <point x="625" y="453"/>
      <point x="674" y="421"/>
      <point x="674" y="360" type="curve" smooth="yes"/>
      <point x="674" y="297"/>
      <point x="635" y="261"/>
      <point x="564" y="261" type="curve" smooth="yes"/>
      <point x="503" y="261"/>
      <point x="431" y="311"/>
      <point x="361" y="365" type="curve" smooth="yes"/>
      <point x="290" y="420"/>
      <point x="220" y="473"/>
      <point x="154" y="473" type="curve" smooth="yes"/>
      <point x="78" y="473"/>
      <point x="27" y="402"/>
      <point x="27" y="330" type="curve" smooth="yes"/>
      <point x="27" y="241"/>
      <point x="92" y="214"/>
      <point x="153" y="214" type="curve" smooth="yes"/>
      <point x="238" y="214"/>
      <point x="301" y="266"/>
    </contour>
  </outline>
</glyph>
<glyph name="fi" format="2">
  <advance width="685"/>
  <unicode hex="FB01"/>
  <outline>
    <contour>
      <point x="129" y="0" type="line" name="ab01"/>
      <point x="219" y="0" type="line"/>
      <point x="219" y="430" type="line" name="sv01"/>
      <point x="535.5" y="430" type="line"/>
      <point x="535.5" y="500" type="line" name="sv02"/>
      <point x="219" y="500" type="line"/>
      <point x="219" y="609" type="line" smooth="yes"/>
      <point x="219" y="670"/>
      <point x="238" y="680"/>
      <point x="270" y="680" type="curve" smooth="yes" name="dv01"/>
      <point x="291" y="680"/>
      <point x="327" y="676"/>
      <point x="351" y="668" type="curve"/>
      <point x="366" y="728" type="line"/>
      <point x="314" y="745.217"/>
      <point x="289" y="750"/>
      <point x="261" y="750" type="curve" smooth="yes" name="dv02"/>
      <point x="178" y="750"/>
      <point x="129" y="708.167"/>
      <point x="129" y="607.57" type="curve" smooth="yes"/>
      <point x="129" y="500" type="line" name="dv04"/>
      <point x="22" y="500" type="line"/>
      <point x="22" y="430" type="line"/>
      <point x="129" y="430" type="line" name="dv03"/>
    </contour>
    <contour>
      <point x="504" y="0" type="line" name="ab01"/>
      <point x="594" y="0" type="line"/>
      <point x="594" y="500" type="line"/>
      <point x="504" y="500" type="line" name="av01"/>
    </contour>
    <contour>
      <point x="497" y="646" type="curve" smooth="yes"/>
      <point x="497" y="621"/>
      <point x="516" y="594"/>
      <point x="550" y="594" type="curve" smooth="yes" name="dv01"/>
      <point x="584" y="594"/>
      <point x="602" y="620"/>
      <point x="602" y="646" type="curve" smooth="yes"/>
      <point x="602" y="671"/>
      <point x="584" y="696"/>
      <point x="550" y="696" type="curve" smooth="yes" name="dv02"/>
      <point x="516" y="696"/>
      <point x="497" y="670"/>
    </contour>
  </outline>
</glyph>
<glyph name="Ccedilla.ss09" format="2">
  <advance width="753"/>
  <anchor x="377" y="719" name="top"/>
  <anchor x="377" y="-217" name="bottom"/>
  <outline>
    <contour>
      <point x="610" y="261" type="line"/>
      <point x="594" y="140"/>
      <point x="503" y="60"/>
      <point x="387" y="60" type="curve" smooth="yes"/>
      <point x="243" y="60"/>
      <point x="143" y="181"/>
      <point x="143" y="354" type="curve" smooth="yes"/>
      <point x="143" y="524"/>
      <point x="239" y="640"/>
      <point x="380" y="640" type="curve" smooth="yes"/>
      <point x="479" y="640"/>
      <point x="567" y="584"/>
      <point x="600" y="485" type="curve"/>
      <point x="690" y="485" type="line"/>
      <point x="644" y="637"/>
      <point x="541" y="720"/>
      <point x="390" y="720" type="curve" smooth="yes"/>
      <point x="190" y="720"/>
      <point x="53" y="572"/>
      <point x="53" y="355" type="curve" smooth="yes"/>
      <point x="53" y="135"/>
      <point x="192" y="-20"/>
      <point x="390" y="-20" type="curve" smooth="yes"/>
      <point x="550" y="-20"/>
      <point x="667" y="79"/>
      <point x="700" y="261" type="curve"/>
    </contour>
    <contour>
      <point x="281" y="-204" type="line"/>
      <point x="302" y="-210"/>
      <point x="326" y="-217"/>
      <point x="365" y="-217" type="curve" smooth="yes"/>
      <point x="445" y="-217"/>
      <point x="491" y="-188"/>
      <point x="491" y="-136" type="curve" smooth="yes"/>
      <point x="491" y="-89"/>
      <point x="454" y="-63"/>
      <point x="395" y="-63" type="curve"/>
      <point x="439.74" y="15.895" type="line"/>
      <point x="382.74" y="15.895" type="line"/>
      <point x="328" y="-85" type="line"/>
      <point x="343" y="-83"/>
      <point x="354" y="-81"/>
      <point x="367" y="-81" type="curve" smooth="yes"/>
      <point x="402" y="-81"/>
      <point x="423" y="-96"/>
      <point x="423" y="-131" type="curve" smooth="yes"/>
      <point x="423" y="-165"/>
      <point x="404" y="-181"/>
      <point x="362" y="-181" type="curve" smooth="yes"/>
      <point x="339" y="-181"/>
      <point x="317" y="-176"/>
      <point x="300" y="-170" type="curve"/>
    </contour>
  </outline>
</glyph>
<glyph name="Ereversedcyr.ss10" format="2">
  <advance width="735"/>
  <anchor x="357" y="719" name="top"/>
  <outline>
    <contour>
      <point x="63" y="97" type="line"/>
      <point x="133" y="19"/>
      <point x="226" y="-20"/>
      <point x="329" y="-20" type="curve" smooth="yes"/>
      <point x="535" y="-20"/>
      <point x="672" y="137"/>
      <point x="672" y="357" type="curve" smooth="yes"/>
      <point x="672" y="573"/>
      <point x="539" y="720"/>
      <point x="336" y="720" type="curve" smooth="yes"/>
      <point x="230" y="720"/>
      <point x="140" y="680"/>
      <point x="72" y="603" type="curve"/>
      <point x="108" y="499" type="line"/>
      <point x="165" y="593.671"/>
      <point x="245" y="640"/>
      <point x="334" y="640" type="curve" smooth="yes"/>
      <point x="490" y="640"/>
      <point x="582" y="520.588"/>
      <point x="582" y="353.01" type="curve" smooth="yes"/>
      <point x="582" y="184.429"/>
      <point x="479" y="60"/>
      <point x="323" y="60" type="curve" smooth="yes"/>
      <point x="234" y="60"/>
      <point x="158" y="105.321"/>
      <point x="99" y="201" type="curve"/>
    </contour>
    <contour>
      <point x="246" y="324" type="line"/>
      <point x="591" y="324" type="line"/>
      <point x="591" y="404" type="line"/>
      <point x="246" y="404" type="line"/>
    </contour>
  </outline>
</glyph>
<glyph name="G.ss15" format="2">
  <advance width="747"/>
  <anchor x="383" y="-19" name="bottom"/>
  <anchor x="383" y="719" name="top"/>
  <outline>
    <contour>
      <point x="377" y="284" type="line" name="dv05"/>
      <point x="617" y="284" type="line" name="sv02"/>
      <point x="607" y="309" type="line"/>
      <point x="607" y="166"/>
      <point x="520" y="61"/>
      <point x="376" y="61" type="curve" smooth="yes" name="dv04"/>
      <point x="229" y="61"/>
      <point x="143" y="170"/>
      <point x="143" y="347" type="curve" smooth="yes" name="dv07"/>
      <point x="143" y="529"/>
      <point x="233" y="640"/>
      <point x="389" y="640" type="curve" smooth="yes"/>
      <point x="477" y="640"/>
      <point x="556" y="609"/>
      <point x="634" y="530" type="curve"/>
      <point x="643" y="595" type="line"/>
      <point x="568" y="680"/>
      <point x="485" y="720"/>
      <point x="377" y="720" type="curve" smooth="yes"/>
      <point x="173" y="720"/>
      <point x="53" y="563"/>
      <point x="53" y="350" type="curve" smooth="yes" name="dv08"/>
      <point x="53" y="132"/>
      <point x="179" y="-19"/>
      <point x="378" y="-19" type="curve" smooth="yes" name="dv03"/>
      <point x="571" y="-19"/>
      <point x="694" y="123"/>
      <point x="694" y="312" type="curve" smooth="yes" name="sv03"/>
      <point x="694" y="364" type="line" name="sv01"/>
      <point x="377" y="364" type="line" name="dv06"/>
    </contour>
  </outline>
</glyph>
<glyph name="Schwa.ss10" format="2">
  <advance width="759"/>
  <anchor x="380" y="719" name="top"/>
  <anchor x="380" y="-20" name="bottom"/>
  <outline>
    <contour>
      <point x="641" y="318" type="line" name="dv05"/>
      <point x="640" y="398" type="line" name="dv06"/>
      <point x="57" y="398" type="line" name="sh04"/>
      <point x="55" y="383"/>
      <point x="53" y="362"/>
      <point x="53" y="337" type="curve" smooth="yes" name="sh01"/>
      <point x="53" y="135"/>
      <point x="183" y="-20"/>
      <point x="382" y="-20" type="curve" smooth="yes" name="dv01"/>
      <point x="577" y="-20"/>
      <point x="706" y="129"/>
      <point x="706" y="357" type="curve" smooth="yes" name="sh03"/>
      <point x="706" y="581"/>
      <point x="582" y="720"/>
      <point x="372" y="720" type="curve" smooth="yes"/>
      <point x="260" y="720"/>
      <point x="170" y="680"/>
      <point x="102" y="603" type="curve"/>
      <point x="138" y="499" type="line"/>
      <point x="210" y="618.85"/>
      <point x="291" y="640"/>
      <point x="363" y="640" type="curve" smooth="yes"/>
      <point x="525" y="640"/>
      <point x="616" y="534.637"/>
      <point x="616" y="348.997" type="curve" smooth="yes"/>
      <point x="616" y="166.367"/>
      <point x="528" y="60"/>
      <point x="380" y="60" type="curve" smooth="yes" name="dv02"/>
      <point x="243" y="60"/>
      <point x="144" y="152.358"/>
      <point x="144" y="318" type="curve" name="sh02"/>
    </contour>
  </outline>
</glyph>
<glyph name="austral.osf" format="2">
  <advance width="718"/>
  <outline>
    <contour>
      <point x="33" y="148" type="line"/>
      <point x="686" y="148" type="line"/>
      <point x="686" y="193" type="line"/>
      <point x="33" y="193" type="line"/>
    </contour>
    <contour>
      <point x="33" y="247" type="line"/>
      <point x="686" y="247" type="line"/>
      <point x="686" y="292" type="line"/>
      <point x="33" y="292" type="line"/>
    </contour>
    <contour>
      <point x="119" y="0" type="line"/>
      <point x="218" y="0" type="line"/>
      <point x="359" y="448" type="line"/>
      <point x="500" y="0" type="line"/>
      <point x="599" y="0" type="line"/>
      <point x="407" y="540" type="line"/>
      <point x="311" y="540" type="line"/>
    </contour>
  </outline>
</glyph>
<glyph name="becyr.loclSRB" format="2">
  <advance width="616"/>
  <outline>
    <contour>
      <point x="305" y="50" type="curve" smooth="yes"/>
      <point x="206" y="50"/>
      <point x="159" y="109"/>
      <point x="159" y="224" type="curve" smooth="yes"/>
      <point x="159" y="340"/>
      <point x="207" y="397"/>
      <point x="301" y="397" type="curve" smooth="yes"/>
      <point x="412" y="397"/>
      <point x="457" y="317"/>
      <point x="457" y="218" type="curve" smooth="yes"/>
      <point x="457" y="117"/>
      <point x="410" y="50"/>
    </contour>
    <contour>
      <point x="309" y="-20" type="curve" smooth="yes"/>
      <point x="458" y="-20"/>
      <point x="547" y="75"/>
      <point x="547" y="226" type="curve" smooth="yes"/>
      <point x="547" y="376"/>
      <point x="459" y="467"/>
      <point x="309" y="467" type="curve" smooth="yes"/>
      <point x="154" y="467"/>
      <point x="69" y="369"/>
      <point x="69" y="226" type="curve" smooth="yes"/>
      <point x="69" y="82"/>
      <point x="155" y="-20"/>
    </contour>
    <contour>
      <point x="389" y="456.787" type="line"/>
      <point x="238.056" y="489.957"/>
      <point x="199" y="512.34"/>
      <point x="199" y="559.582" type="curve" smooth="yes"/>
      <point x="199" y="610.499"/>
      <point x="257.623" y="627.051"/>
      <point x="339.503" y="636" type="curve" smooth="yes"/>
      <point x="511" y="654.744" type="line"/>
      <point x="511" y="728.32" type="line"/>
      <point x="315.222" y="706.399" type="line" smooth="yes"/>
      <point x="210.543" y="694.679"/>
      <point x="109" y="669.067"/>
      <point x="109" y="569.795" type="curve" smooth="yes"/>
      <point x="109" y="475.808"/>
      <point x="199" y="447"/>
      <point x="309" y="438" type="curve"/>
    </contour>
  </outline>
</glyph>
<glyph name="ccedilla.ss09" format="2">
  <advance width="573"/>
  <anchor x="287" y="520" name="top"/>
  <anchor x="297" y="-218" name="bottom"/>
  <outline>
    <contour>
      <point x="435" y="167" type="line"/>
      <point x="431.959" y="98.414"/>
      <point x="379.55" y="50"/>
      <point x="305.56" y="50" type="curve" smooth="yes"/>
      <point x="196.631" y="50"/>
      <point x="136" y="122.362"/>
      <point x="136" y="246.985" type="curve" smooth="yes"/>
      <point x="136" y="373.618"/>
      <point x="191.495" y="450"/>
      <point x="298.375" y="450" type="curve" smooth="yes"/>
      <point x="372.369" y="450"/>
      <point x="428.892" y="401.593"/>
      <point x="437" y="331" type="curve"/>
      <point x="527" y="331" type="line"/>
      <point x="508.849" y="457"/>
      <point x="422.383" y="520"/>
      <point x="297.261" y="520" type="curve" smooth="yes"/>
      <point x="139.587" y="520"/>
      <point x="46" y="417"/>
      <point x="46" y="255" type="curve" smooth="yes"/>
      <point x="46" y="85"/>
      <point x="143.648" y="-20"/>
      <point x="302.327" y="-20" type="curve" smooth="yes"/>
      <point x="429.473" y="-20"/>
      <point x="514.916" y="47"/>
      <point x="525" y="167" type="curve"/>
    </contour>
    <contour>
      <point x="201" y="-205" type="line"/>
      <point x="222" y="-211"/>
      <point x="246" y="-218"/>
      <point x="285" y="-218" type="curve" smooth="yes"/>
      <point x="365" y="-218"/>
      <point x="411" y="-189"/>
      <point x="411" y="-137" type="curve" smooth="yes"/>
      <point x="411" y="-90"/>
      <point x="374" y="-64"/>
      <point x="315" y="-64" type="curve"/>
      <point x="359.74" y="14.895" type="line"/>
      <point x="302.74" y="14.895" type="line"/>
      <point x="248" y="-86" type="line"/>
      <point x="263" y="-84"/>
      <point x="274" y="-82"/>
      <point x="287" y="-82" type="curve" smooth="yes"/>
      <point x="322" y="-82"/>
      <point x="343" y="-97"/>
      <point x="343" y="-132" type="curve" smooth="yes"/>
      <point x="343" y="-166"/>
      <point x="324" y="-182"/>
      <point x="282" y="-182" type="curve" smooth="yes"/>
      <point x="259" y="-182"/>
      <point x="237" y="-177"/>
      <point x="220" y="-171" type="curve"/>
    </contour>
  </outline>
</glyph>
<glyph name="cent.osf" format="2">
  <advance width="563"/>
  <outline>
    <contour>
      <point x="277" y="535" type="line"/>
      <point x="327" y="535" type="line"/>
      <point x="327" y="655" type="line"/>
      <point x="277" y="655" type="line"/>
    </contour>
    <contour>
      <point x="278" y="-131" type="line"/>
      <point x="326" y="-131" type="line"/>
      <point x="326" y="-10" type="line"/>
      <point x="278" y="-11" type="line"/>
    </contour>
    <contour>
      <point x="453" y="123" type="line"/>
      <point x="417" y="76.361"/>
      <point x="356" y="50"/>
      <point x="294" y="50" type="curve" smooth="yes" name="dv02"/>
      <point x="197" y="50"/>
      <point x="149" y="122.613"/>
      <point x="149" y="267.839" type="curve" smooth="yes"/>
      <point x="149" y="408.794"/>
      <point x="196" y="475"/>
      <point x="296" y="475" type="curve" smooth="yes" name="sv01"/>
      <point x="355" y="475"/>
      <point x="411" y="448.639"/>
      <point x="447" y="402" type="curve"/>
      <point x="500" y="455" type="line"/>
      <point x="459" y="508"/>
      <point x="387" y="545"/>
      <point x="293" y="545" type="curve" smooth="yes" name="at01"/>
      <point x="143" y="545"/>
      <point x="59" y="441.417"/>
      <point x="59" y="267.731" type="curve" smooth="yes"/>
      <point x="59" y="83.583"/>
      <point x="145" y="-20"/>
      <point x="294" y="-20" type="curve" smooth="yes" name="dv01"/>
      <point x="390" y="-20"/>
      <point x="465" y="17"/>
      <point x="506" y="70" type="curve"/>
    </contour>
  </outline>
</glyph>
<glyph name="dollar.osf" format="2">
  <advance width="540"/>
  <outline>
    <contour>
      <point x="65.444" y="74.383" type="line"/>
      <point x="107.205" y="21.948"/>
      <point x="178.948" y="-20"/>
      <point x="271.035" y="-20" type="curve" smooth="yes"/>
      <point x="387.751" y="-20"/>
      <point x="475.556" y="47.26"/>
      <point x="475.556" y="137.64" type="curve" smooth="yes"/>
      <point x="475.556" y="213.307"/>
      <point x="412.492" y="259.497"/>
      <point x="304.107" y="287.923" type="curve" smooth="yes"/>
      <point x="200.116" y="315.197"/>
      <point x="162.523" y="352.03"/>
      <point x="162.523" y="396.169" type="curve" smooth="yes"/>
      <point x="162.523" y="443.461"/>
      <point x="204.932" y="472.888"/>
      <point x="260.734" y="472.888" type="curve" smooth="yes"/>
      <point x="315.42" y="472.888"/>
      <point x="371.222" y="443.116"/>
      <point x="409.167" y="396.333" type="curve"/>
      <point x="465.918" y="451.914" type="line"/>
      <point x="424.158" y="504.348"/>
      <point x="352.415" y="546.296"/>
      <point x="262.469" y="546.296" type="curve" smooth="yes"/>
      <point x="148.966" y="546.296"/>
      <point x="76.152" y="479.037"/>
      <point x="76.152" y="392.86" type="curve" smooth="yes"/>
      <point x="76.152" y="314.04"/>
      <point x="138.059" y="254.005"/>
      <point x="261.981" y="223.66" type="curve" smooth="yes"/>
      <point x="352.647" y="201.458"/>
      <point x="389.185" y="169.011"/>
      <point x="389.185" y="126.974" type="curve" smooth="yes"/>
      <point x="389.185" y="81.784"/>
      <point x="346.912" y="53.409"/>
      <point x="282.389" y="53.409" type="curve" smooth="yes"/>
      <point x="215.642" y="53.409"/>
      <point x="160.02" y="83.18"/>
      <point x="122.196" y="129.964" type="curve"/>
    </contour>
    <contour>
      <point x="247" y="535" type="line"/>
      <point x="297" y="535" type="line"/>
      <point x="297" y="655" type="line"/>
      <point x="247" y="655" type="line"/>
    </contour>
    <contour>
      <point x="248" y="-131" type="line"/>
      <point x="296" y="-131" type="line"/>
      <point x="296" y="-10" type="line"/>
      <point x="248" y="-11" type="line"/>
    </contour>
  </outline>
</glyph>
<glyph name="e.ss09" format="2">
  <advance width="587"/>
  <anchor x="290" y="520" name="top"/>
  <anchor x="290" y="-20" name="bottom"/>
  <anchor x="399" y="-3" name="ogonek"/>
  <outline>
    <contour>
      <point x="141" y="308" type="line"/>
      <point x="141" y="402"/>
      <point x="209" y="450"/>
      <point x="292" y="450" type="curve" smooth="yes"/>
      <point x="374" y="450"/>
      <point x="434" y="403"/>
      <point x="434" y="308" type="curve"/>
    </contour>
    <contour>
      <point x="530" y="243" type="line"/>
      <point x="530" y="402"/>
      <point x="451" y="520"/>
      <point x="292" y="520" type="curve" smooth="yes"/>
      <point x="133" y="520"/>
      <point x="50" y="401"/>
      <point x="50" y="255" type="curve" smooth="yes"/>
      <point x="50" y="95"/>
      <point x="141" y="-20"/>
      <point x="292" y="-20" type="curve" smooth="yes"/>
      <point x="429" y="-20"/>
      <point x="503" y="50"/>
      <point x="524" y="167" type="curve"/>
      <point x="433" y="167" type="line"/>
      <point x="429" y="85.302"/>
      <point x="363" y="50"/>
      <point x="294" y="50" type="curve" smooth="yes"/>
      <point x="200" y="50"/>
      <point x="141" y="120.365"/>
      <point x="141" y="243" type="curve"/>
    </contour>
  </outline>
</glyph>
<glyph name="ereversedcyr.ss12" format="2">
  <advance width="532"/>
  <anchor x="259" y="520" name="top"/>
  <anchor x="259" y="-20" name="bottom"/>
  <outline>
    <contour>
      <point x="51" y="69" type="line"/>
      <point x="108" y="7"/>
      <point x="163" y="-20"/>
      <point x="236" y="-20" type="curve" smooth="yes"/>
      <point x="388" y="-20"/>
      <point x="482" y="91"/>
      <point x="482" y="255" type="curve" smooth="yes"/>
      <point x="482" y="411"/>
      <point x="394" y="520"/>
      <point x="242" y="520" type="curve" smooth="yes"/>
      <point x="165" y="520"/>
      <point x="101" y="494"/>
      <point x="50" y="441" type="curve"/>
      <point x="57" y="377" type="line"/>
      <point x="132" y="431"/>
      <point x="178" y="450"/>
      <point x="240" y="450" type="curve" smooth="yes"/>
      <point x="341" y="450"/>
      <point x="392" y="377"/>
      <point x="392" y="255" type="curve" smooth="yes"/>
      <point x="392" y="131"/>
      <point x="337" y="50"/>
      <point x="238" y="50" type="curve" smooth="yes"/>
      <point x="172" y="50"/>
      <point x="116" y="77"/>
      <point x="58" y="134" type="curve"/>
    </contour>
    <contour>
      <point x="157" y="219" type="line"/>
      <point x="431" y="219" type="line"/>
      <point x="431" y="284" type="line"/>
      <point x="157" y="284" type="line"/>
    </contour>
  </outline>
</glyph>
<glyph name="iogonek.ss11" format="2">
  <advance width="370"/>
  <anchor x="185" y="-20" name="bottom"/>
  <anchor x="185" y="683" name="top"/>
  <outline>
    <contour>
      <point x="140" y="0" type="line" name="ab01"/>
      <point x="230" y="0" type="line"/>
      <point x="230" y="500" type="line"/>
      <point x="140" y="500" type="line" name="av01"/>
    </contour>
    <contour>
      <point x="35" y="430" type="line"/>
      <point x="335" y="430" type="line"/>
      <point x="335" y="500" type="line"/>
      <point x="35" y="500" type="line"/>
    </contour>
    <contour>
      <point x="35" y="0" type="line"/>
      <point x="335" y="0" type="line"/>
      <point x="335" y="70" type="line"/>
      <point x="35" y="70" type="line"/>
    </contour>
    <contour>
      <point x="133" y="646" type="curve" smooth="yes"/>
      <point x="133" y="621"/>
      <point x="152" y="594"/>
      <point x="186" y="594" type="curve" smooth="yes" name="dv01"/>
      <point x="220" y="594"/>
      <point x="238" y="620"/>
      <point x="238" y="646" type="curve" smooth="yes"/>
      <point x="238" y="671"/>
      <point x="220" y="696"/>
      <point x="186" y="696" type="curve" smooth="yes" name="dv02"/>
      <point x="152" y="696"/>
      <point x="133" y="670"/>
    </contour>
    <contour>
      <point x="336" y="-183" type="line"/>
      <point x="292" y="-171"/>
      <point x="269" y="-143"/>
      <point x="269" y="-103" type="curve" smooth="yes"/>
      <point x="269" y="-62"/>
      <point x="294" y="-22"/>
      <point x="335" y="0" type="curve"/>
      <point x="314" y="3" type="line"/>
      <point x="241" y="-12"/>
      <point x="194" y="-59"/>
      <point x="194" y="-110" type="curve" smooth="yes"/>
      <point x="194" y="-157"/>
      <point x="234" y="-196"/>
      <point x="294" y="-206" type="curve"/>
    </contour>
  </outline>
</glyph>
<glyph name="manat.ss09" format="2">
  <advance width="747"/>
  <outline>
    <contour>
      <point x="332" y="110" type="line"/>
      <point x="412" y="157" type="line"/>
      <point x="412" y="750" type="line"/>
      <point x="332" y="703" type="line"/>
    </contour>
    <contour>
      <point x="196" y="0" type="line"/>
      <point x="196" y="336" type="line" smooth="yes"/>
      <point x="196" y="480"/>
      <point x="262.761" y="540"/>
      <point x="372.97" y="540" type="curve" smooth="yes" name="dv02"/>
      <point x="484.239" y="540"/>
      <point x="551" y="479"/>
      <point x="551" y="336" type="curve" smooth="yes"/>
      <point x="551" y="0" type="line"/>
      <point x="641" y="0" type="line" name="at02"/>
      <point x="641" y="338" type="line" smooth="yes"/>
      <point x="641" y="511"/>
      <point x="543.35" y="620"/>
      <point x="371.942" y="620" type="curve" smooth="yes" name="dv01"/>
      <point x="200.534" y="620"/>
      <point x="106" y="512"/>
      <point x="106" y="338" type="curve" smooth="yes"/>
      <point x="106" y="0" type="line" name="at01"/>
    </contour>
  </outline>
</glyph>
<glyph name="micro" format="2">
  <advance width="580"/>
  <anchor x="290" y="520" name="topgr"/>
  <outline>
    <contour>
      <point x="76" y="-200" type="line"/>
      <point x="166" y="-200" type="line"/>
      <point x="166" y="500" type="line"/>
      <point x="76" y="500" type="line"/>
    </contour>
    <contour>
      <point x="419" y="203" type="line"/>
      <point x="407" y="263" type="line"/>
      <point x="407" y="125.293"/>
      <point x="357" y="50"/>
      <point x="269" y="50" type="curve" smooth="yes"/>
      <point x="200" y="50"/>
      <point x="166" y="96.792"/>
      <point x="166" y="184.403" type="curve" smooth="yes"/>
      <point x="166" y="500" type="line"/>
      <point x="76" y="500" type="line"/>
      <point x="76" y="196" type="line" smooth="yes"/>
      <point x="76" y="51"/>
      <point x="136" y="-20"/>
      <point x="245" y="-20" type="curve" smooth="yes"/>
      <point x="339" y="-20"/>
      <point x="392" y="32"/>
      <point x="419" y="130" type="curve"/>
    </contour>
    <contour>
      <point x="407" y="0" type="line" name="ab01"/>
      <point x="497" y="0" type="line"/>
      <point x="497" y="500" type="line"/>
      <point x="407" y="500" type="line" name="av01"/>
    </contour>
  </outline>
</glyph>
<glyph name="tbar.ss11" format="2">
  <advance width="353"/>
  <outline>
    <contour>
      <point x="104" y="0" type="line"/>
      <point x="194" y="0" type="line"/>
      <point x="194" y="430" type="line"/>
      <point x="314" y="430" type="line"/>
      <point x="314" y="500" type="line"/>
      <point x="194" y="500" type="line"/>
      <point x="194" y="620" type="line"/>
      <point x="104" y="620" type="line"/>
      <point x="104" y="500" type="line"/>
      <point x="19" y="500" type="line"/>
      <point x="19" y="430" type="line"/>
      <point x="104" y="430" type="line"/>
    </contour>
    <contour>
      <point x="18.938" y="193.324" type="line"/>
      <point x="313.63" y="193.324" type="line"/>
      <point x="313.63" y="244.84" type="line"/>
      <point x="18.938" y="244.84" type="line"/>
    </contour>
  </outline>
</glyph>
